<?xml version="1.0" encoding="UTF-8"?>
<!-- Generator: visioncortex VTracer 0.6.3 -->
<svg version="1.1" xmlns="http://www.w3.org/2000/svg" width="1280" height="1280">
<path d="M0 0 C2.86 1.78 5.4 3.86 8 6 C8.99 6.66 9.98 7.32 11 8 C11 8.66 11 9.32 11 10 C11.81 10.36 11.81 10.36 12.64 10.72 C15.63 12.34 18.11 14.35 20.75 16.5 C21.73 17.29 22.72 18.09 23.73 18.91 C24.48 19.6 25.23 20.29 26 21 C26 21.66 26 22.32 26 23 C26.58 23.27 27.15 23.54 27.75 23.81 C30.06 25.03 32.02 26.3 34 28 C34 28.66 34 29.32 34 30 C34.8 30.37 34.8 30.37 35.62 30.75 C39.76 32.92 44.01 35.34 47 39 C47 39.66 47 40.32 47 41 C47.58 41.27 48.15 41.54 48.75 41.81 C51.06 43.03 53.02 44.3 55 46 C55 46.66 55 47.32 55 48 C55.56 48.27 56.11 48.54 56.69 48.81 C59.2 50.1 61.59 51.54 64 53 C63.98 51.71 63.98 51.71 63.95 50.4 C63.9 47.21 63.86 44.02 63.84 40.83 C63.82 39.45 63.8 38.07 63.77 36.69 C63.74 34.71 63.72 32.72 63.71 30.73 C63.68 28.94 63.68 28.94 63.66 27.12 C64.04 23.61 64.25 22.23 67 20 C69.79 19.64 72.17 19.53 74.95 19.61 C75.72 19.62 76.49 19.62 77.29 19.63 C79.76 19.65 82.22 19.7 84.69 19.75 C86.36 19.77 88.03 19.79 89.71 19.8 C93.8 19.85 97.9 19.92 102 20 C102.33 20.99 102.66 21.98 103 23 C103.66 23 104.32 23 105 23 C105.33 45.77 105.66 68.54 106 92 C107.32 92.66 108.64 93.32 110 94 C111.44 94.97 112.86 95.97 114.25 97 C115.31 97.77 115.31 97.77 116.39 98.56 C116.92 99.04 117.45 99.51 118 100 C118 100.66 118 101.32 118 102 C118.87 102.4 118.87 102.4 119.75 102.81 C122.06 104.03 124.02 105.3 126 107 C126 107.66 126 108.32 126 109 C126.54 109.23 127.07 109.45 127.62 109.69 C130 111 130 111 132.35 113.54 C137.08 117.49 142.88 116.68 148.74 116.63 C150.68 116.64 150.68 116.64 152.67 116.65 C156.26 116.67 159.86 116.65 163.45 116.64 C167.33 116.62 171.21 116.64 175.09 116.65 C181.81 116.67 188.53 116.67 195.25 116.65 C204.97 116.63 214.69 116.64 224.41 116.66 C240.18 116.69 255.95 116.7 271.72 116.69 C287.04 116.69 302.35 116.69 317.67 116.7 C319.08 116.7 319.08 116.7 320.53 116.7 C330.82 116.7 341.12 116.71 351.42 116.73 C352.32 116.73 353.22 116.73 354.16 116.73 C357.77 116.73 361.38 116.74 365 116.74 C375.59 116.76 386.18 116.76 396.77 116.75 C403.41 116.75 410.05 116.75 416.69 116.76 C420.53 116.76 424.36 116.76 428.2 116.75 C432.35 116.74 436.5 116.75 440.65 116.76 C441.87 116.75 443.09 116.74 444.34 116.74 C446 116.75 446 116.75 447.7 116.75 C448.66 116.75 449.61 116.75 450.6 116.75 C453 117 453 117 456 119 C456.3 121.9 456.42 124.54 456.38 127.44 C456.39 128.21 456.4 128.99 456.41 129.79 C456.38 135.45 456.38 135.45 454.81 137.72 C452.32 139.48 450.63 139.38 447.59 139.38 C445.89 139.4 445.89 139.4 444.17 139.41 C442.92 139.41 441.67 139.4 440.39 139.39 C439.05 139.4 437.72 139.41 436.38 139.41 C432.71 139.43 429.04 139.43 425.36 139.42 C421.4 139.42 417.44 139.43 413.48 139.45 C405.72 139.47 397.96 139.47 390.2 139.47 C383.9 139.47 377.59 139.47 371.28 139.48 C369.47 139.48 367.65 139.48 365.84 139.49 C364.93 139.49 364.03 139.49 363.1 139.49 C346 139.51 328.9 139.51 311.8 139.5 C296.16 139.49 280.52 139.52 264.87 139.55 C248.82 139.58 232.76 139.6 216.7 139.59 C207.69 139.59 198.67 139.6 189.65 139.62 C181.97 139.64 174.3 139.64 166.62 139.63 C162.7 139.62 158.78 139.62 154.86 139.64 C151.28 139.66 147.69 139.65 144.1 139.63 C142.19 139.62 140.28 139.64 138.37 139.66 C131.28 139.59 127.19 139.01 122 134 C122 133.34 122 132.68 122 132 C121.42 131.73 120.85 131.46 120.25 131.18 C117.96 129.98 116 128.62 113.94 127.06 C113.27 126.56 112.59 126.05 111.9 125.54 C110.13 124.1 108.5 122.72 107 121 C107 120.34 107 119.68 107 119 C106.44 118.74 105.88 118.48 105.3 118.22 C102.73 116.86 100.55 115.27 98.25 113.5 C97.45 112.89 96.65 112.28 95.83 111.66 C95.22 111.11 94.62 110.56 94 110 C94 109.34 94 108.68 94 108 C93.42 107.73 92.85 107.46 92.25 107.19 C89.94 105.97 87.98 104.7 86 103 C86 102.34 86 101.68 86 101 C85.43 100.73 84.86 100.46 84.27 100.19 C81.92 98.96 79.88 97.57 77.75 96 C77.04 95.48 76.34 94.97 75.61 94.44 C75.08 93.96 74.55 93.49 74 93 C74 92.34 74 91.68 74 91 C73.01 90.67 72.02 90.34 71 90 C71 89.34 71 88.68 71 88 C70.28 87.77 69.56 87.55 68.81 87.31 C65.46 85.75 63.53 83.66 61 81 C60.34 80.67 59.68 80.34 59 80 C59 79.34 59 78.68 59 78 C58.42 77.73 57.83 77.46 57.23 77.19 C54.97 75.99 53.19 74.66 51.25 73 C50.64 72.48 50.02 71.97 49.39 71.44 C48 70 48 70 48 68 C47.28 67.75 46.56 67.5 45.81 67.25 C42.72 65.88 40.49 64.28 38 62 C38 61.34 38 60.68 38 60 C37.42 59.73 36.85 59.46 36.25 59.19 C33.94 57.97 31.98 56.7 30 55 C30 54.34 30 53.68 30 53 C29.4 52.71 28.8 52.42 28.19 52.12 C26 51 26 51 23 49 C23 48.34 23 47.68 23 47 C22.42 46.73 21.85 46.46 21.25 46.19 C18.94 44.97 16.98 43.7 15 42 C15 41.34 15 40.68 15 40 C14.01 39.67 13.02 39.34 12 39 C12 38.34 12 37.68 12 37 C11.28 36.75 10.56 36.5 9.81 36.25 C6.72 34.88 4.49 33.28 2 31 C2 30.34 2 29.68 2 29 C1.34 29 0.68 29 0 29 C0 28.34 0 27.68 0 27 C-4.44 27.51 -6.62 29.17 -10 32 C-10.66 32 -11.32 32 -12 32 C-12 32.66 -12 33.32 -12 34 C-13.43 35.48 -13.43 35.48 -15.44 37.19 C-16.53 38.12 -16.53 38.12 -17.64 39.06 C-20.68 41.56 -23.78 43.96 -26.92 46.32 C-29.09 48 -29.09 48 -31.14 50.21 C-33 52 -33 52 -35 52 C-35.33 52.99 -35.66 53.98 -36 55 C-36.66 55 -37.32 55 -38 55 C-38 55.66 -38 56.32 -38 57 C-39.69 58.56 -41.46 60.05 -43.25 61.5 C-44.22 62.29 -45.2 63.09 -46.2 63.91 C-48.45 65.59 -50.45 66.88 -53 68 C-53 68.66 -53 69.32 -53 70 C-54.43 71.48 -54.43 71.48 -56.44 73.19 C-57.16 73.81 -57.89 74.43 -58.64 75.06 C-61.68 77.56 -64.78 79.96 -67.92 82.32 C-70.09 84 -70.09 84 -72.14 86.21 C-74 88 -74 88 -76 88 C-76.5 89.49 -76.5 89.49 -77 91 C-77.66 91 -78.32 91 -79 91 C-79 91.66 -79 92.32 -79 93 C-80.43 94.18 -80.43 94.18 -82.31 95.44 C-84.28 96.75 -85.96 97.96 -87.61 99.66 C-89 101 -89 101 -91 101 C-91.5 102.49 -91.5 102.49 -92 104 C-92.66 104 -93.32 104 -94 104 C-94 104.66 -94 105.32 -94 106 C-99.48 111 -99.48 111 -102 111 C-102 111.66 -102 112.32 -102 113 C-103.69 114.56 -105.46 116.05 -107.25 117.5 C-108.22 118.29 -109.2 119.09 -110.2 119.91 C-113 122 -113 122 -115.3 123.09 C-117.36 123.94 -117.36 123.94 -118 127 C-119.71 128.56 -121.5 130.06 -123.31 131.5 C-124.28 132.27 -125.24 133.05 -126.24 133.84 C-127.15 134.56 -128.06 135.27 -129 136 C-129.58 136.53 -130.17 137.07 -130.77 137.62 C-133.8 139.49 -135.97 139.34 -139.52 139.29 C-140.77 139.28 -142.02 139.27 -143.3 139.26 C-144.61 139.24 -145.91 139.21 -147.25 139.19 C-148.57 139.17 -149.88 139.16 -151.24 139.15 C-154.5 139.11 -157.75 139.06 -161 139 C-162 137 -162 137 -161.44 135.19 C-159.39 132.07 -156.99 130.24 -154 128 C-153.34 128 -152.68 128 -152 128 C-151.67 127.01 -151.34 126.02 -151 125 C-149.27 123.39 -147.47 121.86 -145.62 120.38 C-144.65 119.58 -143.67 118.78 -142.66 117.96 C-140 116 -140 116 -137 115 C-136.5 113.51 -136.5 113.51 -136 112 C-130.53 107 -130.53 107 -128 107 C-128 106.34 -128 105.68 -128 105 C-126.54 103.49 -126.54 103.49 -124.62 101.88 C-124 101.34 -123.37 100.8 -122.73 100.24 C-121 99 -121 99 -119 99 C-119 98.34 -119 97.68 -119 97 C-115.54 94 -115.54 94 -113 94 C-113 93.34 -113 92.68 -113 92 C-112.34 92 -111.68 92 -111 92 C-111 91.34 -111 90.68 -111 90 C-109.39 88.54 -107.71 87.16 -106 85.81 C-101.72 82.4 -97.59 78.91 -93.56 75.21 C-92 74 -92 74 -90 74 C-89.5 72.51 -89.5 72.51 -89 71 C-88.34 71 -87.68 71 -87 71 C-87 70.34 -87 69.68 -87 69 C-84.88 67.05 -84.88 67.05 -82.12 64.88 C-81.22 64.15 -80.32 63.43 -79.38 62.68 C-77 61 -77 61 -75 61 C-74.67 60.01 -74.34 59.02 -74 58 C-73.34 58 -72.68 58 -72 58 C-72 57.34 -72 56.68 -72 56 C-66.52 51 -66.52 51 -64 51 C-64 50.34 -64 49.68 -64 49 C-62.31 47.44 -60.54 45.95 -58.75 44.5 C-57.78 43.71 -56.8 42.91 -55.8 42.09 C-53.55 40.41 -51.55 39.12 -49 38 C-49 37.34 -49 36.68 -49 36 C-47.31 34.44 -45.54 32.95 -43.75 31.5 C-42.29 30.31 -42.29 30.31 -40.8 29.09 C-38.55 27.41 -36.55 26.12 -34 25 C-34 24.34 -34 23.68 -34 23 C-32.36 21.31 -32.36 21.31 -30.19 19.44 C-29.13 18.51 -29.13 18.51 -28.04 17.56 C-26 16 -26 16 -23 15 C-23 14.34 -23 13.68 -23 13 C-19.51 9.78 -15.74 6.91 -12 4 C-11.39 3.51 -10.78 3.02 -10.14 2.52 C-6.68 -0.05 -4.24 -0.85 0 0 Z " fill="#050608" transform="translate(494,422)"/>
<path d="M0 0 C0.97 0 1.93 0 2.93 0.01 C3.95 0 4.97 0 6.02 -0 C9.48 -0.01 12.94 -0.01 16.41 -0 C18.9 -0.01 21.39 -0.01 23.88 -0.01 C30.03 -0.02 36.19 -0.02 42.34 -0.02 C49.71 -0.02 57.08 -0.03 64.45 -0.04 C82.26 -0.05 100.07 -0.06 117.88 -0.06 C126.3 -0.07 134.72 -0.07 143.14 -0.07 C171.95 -0.09 200.76 -0.1 229.56 -0.1 C231.37 -0.1 233.18 -0.1 234.99 -0.1 C236.8 -0.1 238.62 -0.1 240.43 -0.1 C244.07 -0.1 247.71 -0.1 251.35 -0.1 C252.7 -0.1 252.7 -0.1 254.08 -0.1 C283.35 -0.11 312.61 -0.12 341.88 -0.15 C372.8 -0.17 403.72 -0.18 434.64 -0.19 C438.03 -0.19 441.42 -0.19 444.81 -0.19 C446.07 -0.19 446.07 -0.19 447.35 -0.19 C460.81 -0.19 474.27 -0.2 487.74 -0.21 C501.26 -0.23 514.78 -0.23 528.3 -0.22 C536.35 -0.22 544.39 -0.22 552.43 -0.24 C558.42 -0.25 564.41 -0.24 570.41 -0.23 C572.84 -0.23 575.27 -0.23 577.71 -0.24 C581 -0.25 584.29 -0.25 587.58 -0.24 C589.02 -0.25 589.02 -0.25 590.49 -0.26 C591.36 -0.25 592.24 -0.24 593.13 -0.24 C593.89 -0.24 594.64 -0.24 595.42 -0.24 C597.89 0.23 598.79 1.24 600.38 3.14 C597.28 5.2 596.64 5.39 593.13 5.39 C592.26 5.39 591.39 5.39 590.49 5.4 C589.53 5.39 588.57 5.39 587.58 5.38 C586.55 5.39 585.53 5.39 584.48 5.39 C581.01 5.4 577.55 5.39 574.09 5.38 C571.59 5.38 569.1 5.38 566.61 5.38 C561.17 5.39 555.73 5.38 550.29 5.38 C542.2 5.36 534.11 5.36 526.02 5.36 C512.41 5.37 498.81 5.36 485.2 5.35 C471.73 5.34 458.25 5.33 444.78 5.33 C443.94 5.33 443.1 5.33 442.24 5.33 C437.99 5.33 433.74 5.32 429.49 5.32 C399.36 5.32 369.23 5.31 339.1 5.29 C309.82 5.27 280.55 5.26 251.27 5.25 C250.37 5.25 249.47 5.25 248.54 5.25 C239.48 5.24 230.42 5.24 221.36 5.24 C202.91 5.23 184.46 5.23 166 5.22 C165.15 5.22 164.3 5.22 163.43 5.22 C106.75 5.2 50.06 5.17 -6.62 5.14 C-7.18 3.2 -7.18 3.2 -7.62 1.14 C-5.66 -0.83 -2.62 0.01 0 0 Z " fill="#050608" transform="translate(347.6216806769371,702.8632102012634)"/>
<path d="M0 0 C3.89 0.47 4.6 1.46 7.12 4.38 C8.77 6.98 10.26 9.64 11.76 12.33 C12.21 13 12.66 13.68 13.12 14.38 C13.79 14.38 14.44 14.38 15.12 14.38 C15.23 13.81 15.33 13.25 15.44 12.67 C16.25 9.94 17.52 8.03 19.12 5.69 C19.66 4.9 20.2 4.11 20.75 3.3 C22.12 1.38 22.12 1.38 23.12 0.38 C26.56 0.62 26.56 0.62 30.12 1.38 C32.59 5.08 32.37 6.96 32.36 11.38 C32.36 12.06 32.35 12.74 32.35 13.44 C32.35 14.87 32.34 16.3 32.33 17.74 C32.31 19.93 32.31 22.13 32.31 24.33 C32.27 35.08 32.27 35.08 31.12 37.38 C28.49 37.38 25.85 37.38 23.12 37.38 C22.8 32.1 22.46 26.82 22.12 21.38 C19.44 24.06 17.29 26.35 15.12 29.38 C12.94 29.31 12.94 29.31 10.12 28.38 C8.19 26.2 6.64 23.85 5.12 21.38 C5.06 22.45 5 23.52 4.94 24.62 C4.86 26.02 4.77 27.42 4.69 28.81 C4.65 29.52 4.61 30.23 4.57 30.96 C4.24 36.26 4.24 36.26 3.12 37.38 C-0.38 37.5 -0.38 37.5 -3.88 37.38 C-5.84 35.41 -5.04 31.6 -5.04 28.91 C-5.05 28.16 -5.05 27.41 -5.05 26.64 C-5.06 25.06 -5.06 23.47 -5.06 21.88 C-5.06 19.45 -5.08 17.02 -5.1 14.59 C-5.1 13.05 -5.1 11.51 -5.11 9.97 C-5.11 9.24 -5.12 8.51 -5.13 7.76 C-5.1 0.66 -5.1 0.66 0 0 Z " fill="#050608" transform="translate(472.875,618.625)"/>
<path d="M0 0 C4.27 -0.42 6.29 -0.55 9.75 2.12 C12 4.99 13.49 7.7 15 11 C15.99 12.67 16.99 14.34 18 16 C18.05 15.1 18.1 14.19 18.15 13.26 C18.22 12.08 18.3 10.9 18.38 9.69 C18.44 8.52 18.51 7.34 18.59 6.14 C19 3 19 3 21 0 C24.12 -0.19 24.12 -0.19 27 0 C29.32 3.67 29.24 6.82 29.23 11.1 C29.23 12.12 29.23 12.12 29.23 13.16 C29.23 14.58 29.22 16.01 29.21 17.44 C29.19 19.62 29.19 21.81 29.19 24 C29.15 34.7 29.15 34.7 28 37 C24.7 37 21.4 37 18 37 C14 30.38 14 30.38 14 27 C13.34 27 12.68 27 12 27 C11.01 25.02 10.02 23.04 9 21 C8.94 22.07 8.88 23.14 8.82 24.25 C8.73 25.64 8.65 27.04 8.56 28.44 C8.52 29.14 8.48 29.85 8.44 30.58 C8.11 35.89 8.11 35.89 7 37 C4.33 37.14 1.68 37.04 -1 37 C-1.02 32.05 -1.04 27.1 -1.05 22.16 C-1.06 20.47 -1.07 18.79 -1.08 17.1 C-1.09 14.69 -1.09 12.27 -1.1 9.85 C-1.1 9.1 -1.11 8.34 -1.11 7.56 C-1.11 2.23 -1.11 2.23 0 0 Z " fill="#050608" transform="translate(776,619)"/>
<path d="M0 0 C3.56 0.31 3.56 0.31 5.05 1.42 C7.16 4.06 8.66 6.9 10.25 9.88 C10.87 11.03 11.5 12.19 12.14 13.38 C13.56 16.31 13.56 16.31 13.56 18.31 C14.22 18.31 14.88 18.31 15.56 18.31 C15.55 17.1 15.54 15.88 15.53 14.63 C15.52 13.04 15.51 11.46 15.5 9.88 C15.49 9.07 15.48 8.27 15.47 7.44 C15.47 5.4 15.51 3.36 15.56 1.31 C15.89 0.98 16.22 0.65 16.56 0.31 C20.06 0.62 20.06 0.62 23.56 1.31 C25.06 4.31 24.7 7.4 24.7 10.69 C24.7 11.78 24.7 11.78 24.7 12.9 C24.7 14.43 24.7 15.97 24.69 17.51 C24.69 19.87 24.69 22.23 24.7 24.59 C24.7 26.08 24.7 27.57 24.7 29.07 C24.7 29.78 24.7 30.49 24.7 31.22 C24.68 36.2 24.68 36.2 23.56 37.31 C20.23 37.46 16.9 37.35 13.56 37.31 C9.11 28.9 9.11 28.9 4.56 20.31 C4.27 25.53 4.27 25.53 3.99 30.75 C3.67 36.2 3.67 36.2 2.56 37.31 C-0.94 37.44 -0.94 37.44 -4.44 37.31 C-6.4 35.35 -5.6 31.54 -5.61 28.85 C-5.61 28.1 -5.61 27.35 -5.62 26.58 C-5.62 24.99 -5.62 23.41 -5.62 21.82 C-5.62 19.39 -5.64 16.96 -5.66 14.53 C-5.67 12.99 -5.67 11.45 -5.67 9.91 C-5.68 9.18 -5.68 8.45 -5.69 7.7 C-5.67 2.54 -5.61 0.51 0 0 Z " fill="#050608" transform="translate(680.4375,618.6875)"/>
<path d="M0 0 C3.66 0.37 5.08 0.72 7.48 3.46 C10.38 7.84 12.55 12.63 14.75 17.38 C14.8 16.32 14.85 15.26 14.9 14.16 C14.97 12.78 15.05 11.39 15.12 10 C15.17 8.95 15.17 8.95 15.22 7.88 C15.52 2.6 15.52 2.6 17.75 0.38 C20.25 0.12 20.25 0.12 22.75 0.38 C24.75 2.38 24.75 2.38 24.98 5.81 C24.98 7.29 24.97 8.76 24.95 10.23 C24.94 11 24.94 11.77 24.94 12.57 C24.93 15.05 24.9 17.52 24.88 20 C24.86 21.68 24.86 23.35 24.85 25.03 C24.83 29.15 24.79 33.26 24.75 37.38 C21.38 37.64 18.12 37.77 14.75 37.38 C12.57 35.4 12.57 35.4 11.31 32.75 C10.88 31.89 10.45 31.03 10 30.15 C9.59 29.23 9.18 28.32 8.75 27.38 C7.75 25.37 6.75 23.37 5.75 21.38 C5.69 22.36 5.63 23.35 5.57 24.37 C5.48 25.65 5.4 26.93 5.31 28.25 C5.23 29.53 5.15 30.8 5.07 32.12 C4.75 35.38 4.75 35.38 3.75 37.38 C1.11 37.38 -1.53 37.38 -4.25 37.38 C-4.27 32.27 -4.29 27.16 -4.3 22.05 C-4.31 20.31 -4.32 18.57 -4.33 16.83 C-4.34 14.34 -4.34 11.84 -4.35 9.35 C-4.35 8.57 -4.36 7.78 -4.36 6.98 C-4.36 5.11 -4.31 3.24 -4.25 1.38 C-3.25 0.38 -3.25 0.38 0 0 Z " fill="#050608" transform="translate(938.25,618.625)"/>
<path d="M0 0 C3.51 0.05 5.13 0.25 8.31 1.88 C10.88 5.1 11.25 7.21 11.25 11.31 C9.89 14.24 8.52 16.04 6.25 18.31 C6.25 19.3 6.25 20.29 6.25 21.31 C6.91 21.31 7.57 21.31 8.25 21.31 C8.25 21.97 8.25 22.63 8.25 23.31 C8.91 23.31 9.57 23.31 10.25 23.31 C10.25 22.32 10.25 21.33 10.25 20.31 C12.56 19.69 12.56 19.69 15.25 19.31 C16.24 19.97 17.23 20.63 18.25 21.31 C18.11 21.99 17.96 22.67 17.81 23.38 C17.18 26.68 16.71 29.98 16.25 33.31 C16.91 33.31 17.57 33.31 18.25 33.31 C18.25 34.63 18.25 35.95 18.25 37.31 C14.71 37.54 11.17 37.74 7.62 37.94 C6.63 38 5.63 38.07 4.6 38.13 C-2.21 38.49 -6.94 38.19 -12.75 34.31 C-14.97 30.32 -14.8 27.69 -13.75 23.31 C-13.42 22.32 -13.09 21.33 -12.75 20.31 C-12.09 20.31 -11.43 20.31 -10.75 20.31 C-10.75 19.65 -10.75 18.99 -10.75 18.31 C-10.09 18.31 -9.43 18.31 -8.75 18.31 C-9.08 17.63 -9.41 16.95 -9.75 16.25 C-10.98 12.64 -11.22 10.11 -10.75 6.31 C-8.31 3.44 -8.31 3.44 -5.75 1.31 C-4.11 -0.33 -2.26 0.06 0 0 Z M-0.75 7.31 C-0.75 8.63 -0.75 9.95 -0.75 11.31 C0.24 10.98 1.23 10.65 2.25 10.31 C1.92 9.32 1.59 8.33 1.25 7.31 C0.59 7.31 -0.07 7.31 -0.75 7.31 Z M-3.75 24.31 C-4.43 26.71 -4.43 26.71 -4.75 29.31 C-2.91 31.6 -2.91 31.6 -0.12 31.44 C0.66 31.4 1.44 31.36 2.25 31.31 C2.25 29.99 2.25 28.67 2.25 27.31 C1.59 27.31 0.93 27.31 0.25 27.31 C-0.08 26.32 -0.41 25.33 -0.75 24.31 C-1.74 24.31 -2.73 24.31 -3.75 24.31 Z " fill="#050608" transform="translate(603.75,618.6875)"/>
<path d="M0 0 C2.71 2.07 3.49 3.56 4.38 6.81 C2.12 8.88 2.12 8.88 -0.62 10.81 C-2.94 10.56 -2.94 10.56 -4.62 9.81 C-4.62 9.15 -4.62 8.49 -4.62 7.81 C-10.71 7.82 -10.71 7.82 -15.69 10.81 C-17.36 16.18 -17.14 21.43 -15.62 26.81 C-14.35 27 -13.07 27.18 -11.75 27.38 C-11.03 27.48 -10.31 27.58 -9.57 27.69 C-7.54 27.98 -7.54 27.98 -5.62 26.81 C-5.29 25.82 -4.97 24.83 -4.62 23.81 C-6.93 23.48 -9.25 23.15 -11.62 22.81 C-11.67 20.81 -11.67 18.81 -11.62 16.81 C-9.69 14.87 -6.26 15.59 -3.69 15.56 C-2.42 15.54 -1.15 15.51 0.15 15.48 C1.22 15.59 2.28 15.7 3.38 15.81 C5.62 19.18 5.62 20.37 5.56 24.31 C5.56 25.27 5.55 26.23 5.54 27.22 C5.34 30.36 4.99 32.22 2.69 34.44 C-2.94 37.79 -10.58 37.53 -16.81 36.06 C-20.49 34.43 -23.42 32.54 -25.75 29.2 C-27.05 25.66 -26.95 22.16 -26.94 18.44 C-26.95 17.7 -26.97 16.95 -26.99 16.19 C-26.99 11.31 -26.2 8.09 -23.62 3.81 C-22.97 3.81 -22.3 3.81 -21.62 3.81 C-21.62 3.15 -21.62 2.49 -21.62 1.81 C-15.11 -2.53 -7.31 -2.39 0 0 Z " fill="#050608" transform="translate(996.625,620.1875)"/>
<path d="M0 0 C1.64 0.82 1.64 0.82 3.89 2.32 C3.89 2.98 3.89 3.64 3.89 4.32 C4.55 4.32 5.21 4.32 5.89 4.32 C5.48 6.68 4.99 8.18 3.58 10.13 C1.89 11.32 1.89 11.32 -0.23 11.07 C-2.11 10.32 -2.11 10.32 -3.11 9.32 C-4.63 9.24 -6.15 9.23 -7.67 9.25 C-8.5 9.26 -9.32 9.27 -10.18 9.28 C-10.81 9.29 -11.45 9.3 -12.11 9.32 C-14.77 13.86 -15.6 17.05 -15.11 22.32 C-13.92 25.7 -13.21 26.25 -10.11 28.32 C-8.04 28.34 -8.04 28.34 -5.92 27.94 C-4.66 27.74 -3.41 27.53 -2.11 27.32 C-2.44 26.66 -2.77 26 -3.11 25.32 C-4.1 25.03 -5.09 24.74 -6.11 24.44 C-9.11 23.32 -9.11 23.32 -10.11 21.38 C-10.11 19.32 -10.11 19.32 -8.11 16.32 C-4.89 15.99 -4.89 15.99 -1.05 16.07 C0.22 16.08 1.49 16.1 2.8 16.11 C5.89 16.32 5.89 16.32 6.89 17.32 C7.1 19.77 7.21 22.17 7.27 24.63 C7.32 25.65 7.32 25.65 7.38 26.68 C7.44 30.31 7.18 31.98 4.77 34.74 C-1.26 38.04 -8.37 37.66 -15.05 36.82 C-19.67 34.55 -22.81 30.91 -25.11 26.32 C-26.42 11 -26.42 11 -21.57 4.84 C-15.64 -1.32 -8.22 -2.66 0 0 Z " fill="#050608" transform="translate(736.109375,619.68359375)"/>
<path d="M0 0 C5.92 0.05 11.26 0.3 16.5 3.25 C19.35 6.19 19.71 8.79 19.94 12.75 C19.82 17.13 18.35 18.94 15.5 22.25 C15.5 25.72 16.88 27.98 18.62 30.88 C19.24 31.99 19.86 33.1 20.5 34.25 C20.17 35.24 19.84 36.23 19.5 37.25 C16.65 37.49 14.3 37.67 11.5 37.25 C9.31 35.19 9.31 35.19 7.5 32.25 C6.59 30.97 5.67 29.7 4.75 28.44 C4.01 27.39 3.26 26.33 2.5 25.25 C2.44 26.03 2.38 26.81 2.32 27.62 C2.23 28.63 2.15 29.64 2.06 30.69 C1.98 31.7 1.9 32.71 1.82 33.75 C1.5 36.25 1.5 36.25 0.5 37.25 C-2.17 37.39 -4.82 37.29 -7.5 37.25 C-7.52 32.14 -7.54 27.03 -7.55 21.92 C-7.56 20.18 -7.57 18.45 -7.58 16.71 C-7.59 14.21 -7.59 11.72 -7.6 9.22 C-7.6 8.44 -7.61 7.66 -7.61 6.85 C-7.61 4.98 -7.56 3.12 -7.5 1.25 C-5.62 -0.63 -2.52 0.03 0 0 Z M1.5 9.25 C1.5 11.56 1.5 13.87 1.5 16.25 C4.14 15.92 6.78 15.59 9.5 15.25 C10.18 13.36 10.18 13.36 10.5 11.25 C8.54 8.84 8.54 8.84 4.88 9.12 C3.2 9.19 3.2 9.19 1.5 9.25 Z " fill="#050608" transform="translate(882.5,618.75)"/>
<path d="M0 0 C4.41 2.17 7.34 4.87 10 9 C12.17 17.15 11.13 24.51 8.12 32.25 C6.16 35.3 3.95 36.79 0.41 37.58 C-6.49 38.15 -11.09 37.94 -17 34 C-17 33.34 -17 32.68 -17 32 C-17.66 32 -18.32 32 -19 32 C-21.96 24.29 -23.18 16.93 -20.25 8.97 C-19.44 7.31 -19.44 7.31 -18 5 C-17.34 5 -16.68 5 -16 5 C-16 4.34 -16 3.68 -16 3 C-11.45 -1.08 -5.74 -0.76 0 0 Z M-9 9 C-12.17 16.09 -12.5 20.5 -10 28 C-7.25 30.26 -7.25 30.26 -4.5 29.88 C-1.39 28.78 -0.66 27.83 1 25 C1.44 22.09 1.44 22.09 1.31 19 C1.31 17.97 1.3 16.94 1.3 15.88 C1.01 13.07 0.44 11.39 -1 9 C-3.64 9 -6.28 9 -9 9 Z " fill="#050608" transform="translate(451,619)"/>
<path d="M0 0 C1.01 0.08 2.02 0.16 3.06 0.25 C5.34 3.67 5.28 4.93 5.19 8.94 C5.17 9.93 5.15 10.93 5.13 11.95 C5.1 13.09 5.1 13.09 5.06 14.25 C8.36 13.92 11.66 13.59 15.06 13.25 C15.11 12.48 15.16 11.71 15.21 10.91 C15.29 9.91 15.36 8.91 15.44 7.88 C15.51 6.88 15.58 5.88 15.65 4.85 C16.06 2.25 16.06 2.25 18.06 0.25 C21.12 0.06 21.12 0.06 24.06 0.25 C25.06 1.25 25.06 1.25 25.18 4.67 C25.18 6.19 25.17 7.7 25.16 9.22 C25.16 10.02 25.16 10.82 25.16 11.64 C25.15 14.2 25.14 16.75 25.12 19.31 C25.12 21.04 25.12 22.77 25.11 24.5 C25.1 28.75 25.08 33 25.06 37.25 C18.91 37.35 18.91 37.35 17.06 37.25 C15.25 35.44 15.68 32.64 15.5 30.19 C15.37 28.53 15.37 28.53 15.25 26.84 C15.19 25.99 15.12 25.13 15.06 24.25 C11.76 23.92 8.46 23.59 5.06 23.25 C5.07 24.18 5.09 25.1 5.1 26.06 C5.11 27.26 5.12 28.45 5.12 29.69 C5.14 30.88 5.15 32.08 5.16 33.31 C5.06 36.25 5.06 36.25 4.06 37.25 C1.39 37.39 -1.26 37.29 -3.94 37.25 C-3.96 32.14 -3.98 27.03 -3.99 21.92 C-4 20.18 -4 18.45 -4.01 16.71 C-4.03 14.21 -4.03 11.72 -4.04 9.22 C-4.04 8.44 -4.05 7.66 -4.05 6.85 C-4.05 4.98 -4 3.12 -3.94 1.25 C-2.94 0.25 -2.94 0.25 0 0 Z " fill="#050608" transform="translate(397.9375,618.75)"/>
<path d="M0 0 C1.25 0 1.25 0 2.53 0 C3.39 0.02 4.26 0.03 5.16 0.05 C6.46 0.05 6.46 0.05 7.79 0.04 C14.26 0.1 14.26 0.1 17.66 2.36 C17.91 5.43 17.91 5.43 17.66 8.36 C16.66 9.36 16.66 9.36 13.5 9.46 C11.56 9.44 11.56 9.44 9.59 9.43 C8.3 9.42 7.01 9.41 5.68 9.4 C4.68 9.39 3.69 9.38 2.66 9.36 C2.99 11.34 3.32 13.32 3.66 15.36 C4.44 15.35 5.22 15.34 6.03 15.33 C7.04 15.32 8.05 15.31 9.09 15.3 C10.1 15.29 11.11 15.28 12.15 15.27 C14.66 15.36 14.66 15.36 15.66 16.36 C15.91 18.8 15.91 18.8 15.66 21.36 C12.62 23.39 11.46 23.68 7.97 23.99 C7.16 24.06 6.35 24.14 5.52 24.21 C4.6 24.29 4.6 24.29 3.66 24.36 C3.33 25.68 3 27 2.66 28.36 C3.49 28.34 4.32 28.32 5.18 28.29 C6.81 28.27 6.81 28.27 8.47 28.24 C9.55 28.22 10.63 28.19 11.74 28.17 C14.66 28.36 14.66 28.36 17.66 30.36 C17.91 33.43 17.91 33.43 17.66 36.36 C15.97 38.05 13.87 37.49 11.56 37.5 C10.53 37.5 9.5 37.5 8.44 37.5 C6.82 37.49 6.82 37.49 5.16 37.49 C4.07 37.49 2.99 37.5 1.87 37.5 C0.84 37.5 -0.19 37.5 -1.25 37.5 C-2.2 37.49 -3.15 37.49 -4.13 37.49 C-6.34 37.36 -6.34 37.36 -7.34 36.36 C-7.47 33.95 -7.53 31.57 -7.55 29.15 C-7.55 28.43 -7.56 27.7 -7.56 26.96 C-7.57 25.42 -7.58 23.89 -7.58 22.35 C-7.59 20 -7.62 17.66 -7.66 15.31 C-7.66 13.82 -7.67 12.33 -7.67 10.84 C-7.68 10.14 -7.7 9.43 -7.71 8.71 C-7.7 5.87 -7.65 3.84 -6.09 1.42 C-3.91 0.1 -2.54 -0.01 0 0 Z " fill="#050608" transform="translate(819.34375,618.63671875)"/>
<path d="M0 0 C3.43 1.27 5.45 3.1 7.38 6.25 C7.58 6.83 7.79 7.4 8 8 C5.75 10.06 5.75 10.06 3 12 C0.69 11.75 0.69 11.75 -1 11 C-1 10.34 -1 9.68 -1 9 C-3.64 9.33 -6.28 9.66 -9 10 C-9 10.66 -9 11.32 -9 12 C-8.19 12.24 -7.38 12.48 -6.55 12.73 C5.19 16.42 5.19 16.42 8 20 C9.15 24.13 9.33 27.73 8.25 31.88 C6.45 34.93 5.26 36.6 1.81 37.69 C-5.12 38.46 -11.94 38.67 -18 34.69 C-19 33 -19 33 -19 30.44 C-18 28 -18 28 -15.81 26.5 C-12.03 25.83 -10.35 27.26 -7 29 C-4.21 28.8 -4.21 28.8 -2 28 C-1.67 27.01 -1.34 26.02 -1 25 C-2.01 24.73 -3.02 24.46 -4.06 24.19 C-15.86 20.77 -15.86 20.77 -19 16 C-19.84 11.39 -19.66 8.08 -17.19 4.06 C-11.86 -0.96 -7.03 -0.76 0 0 Z " fill="#050608" transform="translate(297,619)"/>
<path d="M0 0 C0.83 0 1.67 0.01 2.53 0.01 C3.39 0.04 4.26 0.06 5.16 0.09 C6.46 0.09 6.46 0.09 7.79 0.09 C14.23 0.18 14.23 0.18 17.66 2.46 C17.91 5.52 17.91 5.52 17.66 8.46 C16.66 9.46 16.66 9.46 13.5 9.56 C11.56 9.54 11.56 9.54 9.59 9.52 C8.3 9.51 7.01 9.51 5.68 9.5 C4.68 9.48 3.69 9.47 2.66 9.46 C2.99 11.44 3.32 13.42 3.66 15.46 C4.89 15.25 6.13 15.05 7.41 14.84 C10.78 14.4 12.78 14.43 15.66 16.46 C15.84 18.84 15.84 18.84 15.66 21.46 C12.62 23.48 11.46 23.78 7.97 24.09 C7.16 24.16 6.35 24.24 5.52 24.31 C4.6 24.39 4.6 24.39 3.66 24.46 C3.33 25.78 3 27.1 2.66 28.46 C3.49 28.44 4.32 28.41 5.18 28.39 C6.81 28.36 6.81 28.36 8.47 28.34 C9.55 28.31 10.63 28.29 11.74 28.27 C14.66 28.46 14.66 28.46 17.66 30.46 C17.91 33.52 17.91 33.52 17.66 36.46 C16.66 37.46 16.66 37.46 14.43 37.57 C13.47 37.57 12.51 37.56 11.53 37.56 C9.98 37.55 9.98 37.55 8.39 37.55 C7.3 37.54 6.22 37.53 5.09 37.52 C3.46 37.52 3.46 37.52 1.78 37.51 C-0.93 37.5 -3.63 37.48 -6.34 37.46 C-8.54 33.07 -7.57 27.16 -7.58 22.29 C-7.59 20.1 -7.62 17.92 -7.66 15.73 C-7.66 14.34 -7.67 12.95 -7.67 11.56 C-7.68 10.3 -7.69 9.03 -7.7 7.73 C-7.12 2.45 -5.45 -0.06 0 0 Z " fill="#050608" transform="translate(650.34375,618.5390625)"/>
<path d="M0 0 C2.38 0.69 2.38 0.69 3.38 1.69 C3.52 4.36 3.42 7.01 3.38 9.69 C6.71 7.97 8.45 6.59 10.75 3.56 C13.38 0.69 13.38 0.69 17.06 -0.31 C18.16 -0.31 19.25 -0.31 20.38 -0.31 C21.04 0.35 21.69 1.01 22.38 1.69 C21.71 3.34 21.06 4.99 20.38 6.69 C19.71 6.69 19.06 6.69 18.38 6.69 C18.07 7.31 17.76 7.92 17.44 8.56 C16.75 9.94 16.06 11.31 15.38 12.69 C14.71 12.69 14.06 12.69 13.38 12.69 C12.47 14.87 12.47 14.87 12.38 17.69 C13.73 20.06 15.04 22.05 16.69 24.19 C19.45 27.87 21.89 31.28 23.38 35.69 C21.81 37.26 20.23 36.97 18.06 37.06 C14.35 37.03 13.69 36.97 10.81 34.38 C9.38 31.69 9.38 31.69 9.38 28.69 C8.71 28.69 8.06 28.69 7.38 28.69 C6.71 27.7 6.06 26.71 5.38 25.69 C3.71 27.35 4.01 29.47 3.81 31.75 C3.73 32.67 3.64 33.59 3.56 34.54 C3.5 35.25 3.44 35.96 3.38 36.69 C-2.78 36.79 -2.78 36.79 -4.62 36.69 C-6.59 34.72 -5.81 30.91 -5.83 28.22 C-5.83 27.47 -5.84 26.73 -5.85 25.95 C-5.85 24.37 -5.86 22.78 -5.87 21.2 C-5.87 18.76 -5.91 16.33 -5.94 13.9 C-5.94 12.36 -5.95 10.82 -5.95 9.29 C-5.97 8.55 -5.98 7.82 -5.99 7.07 C-5.98 5.02 -5.98 5.02 -5.62 1.69 C-2.62 -0.31 -2.62 -0.31 0 0 Z " fill="#050608" transform="translate(317.625,619.3125)"/>
<path d="M0 0 C2.98 1.83 4.79 3.94 5.96 7.23 C4.97 7.56 3.98 7.89 2.96 8.23 C2.96 8.89 2.96 9.55 2.96 10.23 C1.31 10.56 -0.34 10.89 -2.04 11.23 C-2.37 10.24 -2.7 9.25 -3.04 8.23 C-6.01 8.23 -8.98 8.23 -12.04 8.23 C-11.71 9.22 -11.38 10.21 -11.04 11.23 C-8.41 12.3 -8.41 12.3 -5.29 13.1 C3.37 15.87 3.37 15.87 5.96 20.23 C6.64 24.03 6.68 27.43 5.96 31.23 C3.76 34.37 2.4 35.82 -1.3 36.86 C-4.48 37.29 -7.4 37.2 -10.6 36.98 C-11.71 36.91 -12.83 36.84 -13.98 36.77 C-17.22 36.19 -18.75 35.57 -21.04 33.23 C-21.29 30.04 -21.29 30.04 -21.04 27.23 C-20.05 27.23 -19.06 27.23 -18.04 27.23 C-18.04 26.57 -18.04 25.91 -18.04 25.23 C-15.72 25.74 -13.76 26.35 -11.6 27.35 C-8.63 28.37 -7.01 28.08 -4.04 27.23 C-3.71 26.24 -3.38 25.25 -3.04 24.23 C-3.83 24.07 -4.63 23.91 -5.45 23.75 C-17.36 21.12 -17.36 21.12 -21.04 16.23 C-22.11 11.62 -22.26 7.38 -19.88 3.18 C-14.71 -2.15 -6.75 -2.56 0 0 Z " fill="#050608" transform="translate(563.03515625,619.7734375)"/>
<path d="M0 0 C1.3 -0.04 1.3 -0.04 2.63 -0.07 C8.96 -0.1 8.96 -0.1 11.61 2.26 C12.5 4.38 12.5 4.38 12.25 6.56 C11.5 8.38 11.5 8.38 10.5 9.38 C8.15 9.45 5.79 9.46 3.44 9.44 C2.15 9.43 0.86 9.42 -0.47 9.41 C-1.47 9.4 -2.47 9.39 -3.5 9.38 C-2.84 11.02 -2.18 12.67 -1.5 14.38 C-0.8 14.42 -0.1 14.47 0.62 14.52 C1.53 14.6 2.44 14.67 3.38 14.75 C4.28 14.82 5.18 14.89 6.12 14.96 C8.5 15.38 8.5 15.38 10.5 17.38 C10.13 20.31 9.64 21.24 7.5 23.38 C5.19 23.68 2.92 23.75 0.59 23.84 C-1.7 24.17 -1.7 24.17 -2.78 26.41 C-3.02 27.06 -3.26 27.71 -3.5 28.38 C-2.13 28.36 -2.13 28.36 -0.73 28.34 C1.06 28.33 1.06 28.33 2.88 28.31 C4.06 28.3 5.24 28.29 6.46 28.28 C9.5 28.38 9.5 28.38 11.5 29.38 C12.78 34.82 12.78 34.82 11.5 37.38 C7.69 37.4 3.88 37.42 0.06 37.44 C-1.03 37.45 -2.11 37.45 -3.24 37.46 C-4.27 37.47 -5.31 37.47 -6.37 37.47 C-7.33 37.48 -8.29 37.48 -9.28 37.49 C-11.5 37.38 -11.5 37.38 -12.5 36.38 C-12.63 33.88 -12.69 31.41 -12.7 28.91 C-12.71 28.16 -12.71 27.41 -12.72 26.64 C-12.73 25.06 -12.74 23.47 -12.74 21.88 C-12.75 19.45 -12.78 17.02 -12.81 14.59 C-12.82 13.05 -12.82 11.51 -12.83 9.97 C-12.84 9.24 -12.85 8.51 -12.87 7.76 C-12.86 5.71 -12.86 5.71 -12.5 2.38 C-8.33 -0.4 -4.9 0.01 0 0 Z " fill="#050608" transform="translate(524.5,618.625)"/>
<path d="M0 0 C0.81 0 1.63 0.01 2.47 0.01 C3.8 0.02 3.8 0.02 5.16 0.02 C6.55 0.04 6.55 0.04 7.97 0.06 C8.9 0.06 9.83 0.06 10.78 0.06 C17.69 0.1 17.69 0.1 19.97 1.24 C20.01 3.58 20.01 5.91 19.97 8.24 C18.97 9.24 18.97 9.24 15.81 9.34 C13.88 9.32 13.88 9.32 11.91 9.31 C10.62 9.3 9.33 9.29 8 9.28 C7 9.27 6 9.25 4.97 9.24 C4.97 10.89 4.97 12.54 4.97 14.24 C5.87 14.21 5.87 14.21 6.8 14.17 C8 14.15 8 14.15 9.22 14.12 C10.01 14.09 10.8 14.07 11.61 14.05 C14.18 14.26 15.76 14.96 17.97 16.24 C18.09 18.62 18.09 18.62 17.97 21.24 C15.47 23.74 14.3 23.6 10.84 23.87 C9.93 23.94 9.02 24.02 8.09 24.09 C7.04 24.17 7.04 24.17 5.97 24.24 C5.64 25.56 5.31 26.88 4.97 28.24 C6.34 28.23 6.34 28.23 7.74 28.21 C9.52 28.19 9.52 28.19 11.34 28.18 C12.53 28.17 13.71 28.16 14.93 28.15 C17.97 28.24 17.97 28.24 19.97 29.24 C19.97 31.88 19.97 34.52 19.97 37.24 C16.16 37.27 12.34 37.29 8.53 37.31 C7.44 37.31 6.35 37.32 5.23 37.33 C4.2 37.33 3.16 37.34 2.1 37.34 C1.14 37.35 0.18 37.35 -0.81 37.36 C-3.03 37.24 -3.03 37.24 -4.03 36.24 C-4.14 33.75 -4.2 31.28 -4.2 28.78 C-4.2 28.03 -4.21 27.28 -4.21 26.51 C-4.21 24.92 -4.22 23.34 -4.22 21.75 C-4.22 19.32 -4.24 16.89 -4.26 14.46 C-4.26 12.92 -4.26 11.38 -4.26 9.84 C-4.27 9.11 -4.28 8.38 -4.28 7.63 C-4.25 0.51 -4.25 0.51 0 0 Z " fill="#050608" transform="translate(848.03125,618.757080078125)"/>
<path d="M0 0 C2.34 0.29 4.67 0.62 7 1 C7.33 2.32 7.66 3.64 8 5 C8.66 5 9.32 5 10 5 C10.99 6.98 11.98 8.96 13 11 C13.41 10.37 13.82 9.75 14.24 9.1 C14.78 8.28 15.32 7.47 15.88 6.62 C16.41 5.81 16.94 5 17.49 4.16 C19 2 19 2 21 0 C24.62 0.38 24.62 0.38 28 1 C27.51 4.97 26.05 7.94 24.12 11.42 C19.95 18.95 18.1 24.71 18.04 33.4 C18 36 18 36 17 37 C13.5 37.12 13.5 37.12 10 37 C8.25 35.25 8.75 32.69 8.62 30.31 C8.25 25.45 7.57 22.22 5 18 C4.12 16.23 3.24 14.46 2.38 12.69 C0.99 9.63 0.99 9.63 -1 7 C-1.12 4 -1.12 4 -1 1 C-0.67 0.67 -0.34 0.34 0 0 Z " fill="#050608" transform="translate(346,619)"/>
<path d="M0 0 C0.78 0 1.56 0 2.37 0 C8.16 0.05 8.16 0.05 10.44 1.19 C10.44 7.79 10.44 14.39 10.44 21.19 C5.55 22.82 3.12 23.44 -1.75 23.38 C-2.77 23.37 -3.8 23.36 -4.86 23.36 C-7.56 23.19 -7.56 23.19 -10.56 22.19 C-12.27 18.77 -11.79 14.96 -11.81 11.19 C-11.83 10.35 -11.85 9.52 -11.88 8.66 C-11.88 7.87 -11.89 7.07 -11.89 6.25 C-11.9 5.52 -11.91 4.79 -11.92 4.04 C-11.8 3.43 -11.68 2.82 -11.56 2.19 C-7.69 -0.39 -4.48 -0.07 0 0 Z " fill="#050608" transform="translate(471.5625,499.8125)"/>
<path d="M0 0 C0.78 -0.01 1.56 -0.02 2.37 -0.02 C8.18 -0 8.18 -0 10.44 2.25 C10.68 4.1 10.68 4.1 10.67 6.31 C10.67 7.11 10.66 7.91 10.66 8.73 C10.64 9.98 10.64 9.98 10.62 11.25 C10.62 12.08 10.62 12.92 10.62 13.77 C10.58 19.97 10.58 19.97 9.44 22.25 C6.71 22.7 6.71 22.7 3.25 22.94 C1.56 23.07 1.56 23.07 -0.17 23.2 C-3.48 23.25 -6.34 23.02 -9.56 22.25 C-12.33 19.48 -11.85 17.56 -11.88 13.77 C-11.88 12.94 -11.88 12.11 -11.88 11.25 C-11.89 10.42 -11.91 9.58 -11.92 8.73 C-11.92 7.93 -11.93 7.13 -11.93 6.31 C-11.93 5.58 -11.93 4.85 -11.93 4.1 C-10.85 -1.3 -4.25 -0.04 0 0 Z " fill="#050608" transform="translate(510.5625,499.75)"/>
<path d="M0 0 C3.15 -0.36 3.15 -0.36 6.94 -0.31 C8.18 -0.31 9.43 -0.3 10.71 -0.3 C14 0 14 0 17 2 C17.31 4.5 17.31 4.5 17 7 C16.34 7.66 15.68 8.32 15 9 C14.01 9 13.02 9 12 9 C12.33 15.93 12.66 22.86 13 30 C14.32 30.33 15.64 30.66 17 31 C17.04 32.67 17.04 34.33 17 36 C16 37 16 37 12.18 37.1 C10.6 37.09 9.02 37.08 7.44 37.06 C6.63 37.06 5.82 37.05 4.99 37.05 C3 37.04 1 37.02 -1 37 C-2.12 32.25 -2.12 32.25 -1 30 C-0.01 29.67 0.98 29.34 2 29 C2.33 22.4 2.66 15.8 3 9 C1.68 8.67 0.36 8.34 -1 8 C-1.62 5.69 -1.62 5.69 -2 3 C-1.34 2.01 -0.68 1.02 0 0 Z " fill="#050608" transform="translate(751,619)"/>
<path d="M0 0 C1.25 -0.02 2.49 -0.03 3.78 -0.05 C7.06 0.31 7.06 0.31 9.02 1.66 C10.06 3.31 10.06 3.31 9.75 6 C9.52 6.76 9.3 7.53 9.06 8.31 C7.74 8.64 6.42 8.97 5.06 9.31 C5.06 16.24 5.06 23.17 5.06 30.31 C6.71 30.64 8.36 30.97 10.06 31.31 C10.11 32.98 10.1 34.65 10.06 36.31 C8.18 38.2 5.48 37.44 2.98 37.45 C2.18 37.45 1.38 37.44 0.56 37.44 C-0.24 37.44 -1.03 37.45 -1.86 37.45 C-7.81 37.44 -7.81 37.44 -8.94 36.31 C-8.98 34.65 -8.98 32.98 -8.94 31.31 C-7.62 30.65 -6.3 29.99 -4.94 29.31 C-4.61 22.71 -4.28 16.11 -3.94 9.31 C-5.26 8.98 -6.58 8.65 -7.94 8.31 C-8.94 7.31 -8.94 7.31 -9.12 4.88 C-8.71 -0.79 -4.68 0.01 0 0 Z " fill="#050608" transform="translate(916.9375,618.6875)"/>
<path d="M0 0 C0.8 0 1.6 0 2.42 0.01 C3.25 0.02 4.08 0.03 4.93 0.04 C5.77 0.04 6.6 0.04 7.46 0.04 C13.66 0.09 13.66 0.09 14.8 1.23 C14.9 2.62 14.94 4.02 14.94 5.41 C14.94 6.68 14.94 6.68 14.94 7.97 C14.94 8.86 14.93 9.75 14.93 10.67 C14.94 12 14.94 12 14.94 13.35 C14.94 14.2 14.94 15.04 14.94 15.91 C14.94 16.69 14.94 17.47 14.93 18.28 C14.8 20.23 14.8 20.23 13.8 22.23 C10.68 22.29 7.55 22.32 4.43 22.36 C3.54 22.37 2.65 22.39 1.73 22.41 C0.88 22.41 0.03 22.42 -0.84 22.43 C-2.02 22.44 -2.02 22.44 -3.22 22.46 C-5.2 22.23 -5.2 22.23 -7.2 20.23 C-7.64 17.25 -7.52 14.24 -7.51 11.23 C-7.52 10.4 -7.54 9.57 -7.56 8.71 C-7.56 7.91 -7.56 7.11 -7.56 6.29 C-7.56 5.56 -7.56 4.83 -7.57 4.08 C-6.77 0.1 -3.4 -0.02 0 0 Z " fill="#050608" transform="translate(467.1953125,538.76953125)"/>
<path d="M0 0 C0.78 0 1.56 0 2.37 0 C8.16 0.05 8.16 0.05 10.44 1.19 C10.5 4.31 10.53 7.44 10.56 10.56 C10.58 11.45 10.6 12.34 10.61 13.26 C10.62 14.11 10.63 14.96 10.63 15.84 C10.64 16.62 10.65 17.41 10.66 18.22 C10.44 20.19 10.44 20.19 8.44 22.19 C5.58 22.39 2.85 22.47 0 22.44 C-1.16 22.45 -1.16 22.45 -2.35 22.46 C-6.26 22.45 -8.24 22.4 -11.56 20.19 C-11.95 18.34 -11.95 18.34 -11.96 16.12 C-11.96 15.33 -11.97 14.53 -11.97 13.71 C-11.96 12.88 -11.95 12.05 -11.94 11.19 C-11.95 9.94 -11.95 9.94 -11.97 8.66 C-11.97 7.87 -11.96 7.07 -11.96 6.25 C-11.96 5.52 -11.95 4.79 -11.95 4.04 C-10.81 -1.37 -4.27 -0.07 0 0 Z " fill="#050608" transform="translate(510.5625,538.8125)"/>
<path d="M0 0 C1.65 0 3.3 0 5 0 C7.19 3 7.19 3 9 6 C9.66 6 10.32 6 11 6 C11 4.35 11 2.7 11 1 C12.94 0.44 12.94 0.44 15 0 C16 1 16 1 16.13 4.12 C16.13 5.4 16.13 6.68 16.12 8 C16.13 9.92 16.13 9.92 16.13 11.88 C16 15 16 15 15 16 C12.62 16.38 12.62 16.38 10 16 C8.18 13.62 7 12.04 7 9 C6.34 9 5.68 9 5 9 C4.34 11.31 3.68 13.62 3 16 C2.01 16 1.02 16 0 16 C0 10.72 0 5.44 0 0 Z " fill="#050608" transform="translate(307,742)"/>
<path d="M0 0 C3.19 0.25 4.6 0.57 6.81 2.94 C8 5 8 5 8 7 C8.66 6.67 9.32 6.34 10 6 C10 4.35 10 2.7 10 1 C11.65 0.67 13.3 0.34 15 0 C15 5.28 15 10.56 15 16 C13.35 16 11.7 16 10 16 C6 11.89 6 11.89 6 9 C5.34 9 4.68 9 4 9 C3.34 11.31 2.68 13.62 2 16 C1.01 16 0.02 16 -1 16 C-1.03 13.52 -1.05 11.04 -1.06 8.56 C-1.08 7.5 -1.08 7.5 -1.09 6.42 C-1.1 4.61 -1.05 2.81 -1 1 C-0.67 0.67 -0.34 0.34 0 0 Z " fill="#050608" transform="translate(533,742)"/>
<path d="M0 0 C2.25 -0.38 2.25 -0.38 5 0 C7.19 2.94 7.19 2.94 9 6 C9.66 6.33 10.32 6.66 11 7 C11 5.02 11 3.04 11 1 C12.94 0.44 12.94 0.44 15 0 C16 1 16 1 16.13 4.12 C16.13 5.4 16.13 6.68 16.12 8 C16.13 9.92 16.13 9.92 16.13 11.88 C16 15 16 15 15 16 C12.62 16.38 12.62 16.38 10 16 C8.18 13.62 7 12.04 7 9 C5.68 9 4.36 9 3 9 C3 11.31 3 13.62 3 16 C2.01 16 1.02 16 0 16 C-0.2 14.08 -0.38 12.17 -0.56 10.25 C-0.67 9.18 -0.77 8.12 -0.88 7.02 C-0.99 4.36 -0.82 2.5 0 0 Z " fill="#050608" transform="translate(343,742)"/>
<path d="M0 0 C1.3 0.03 1.3 0.03 2.62 0.06 C3.49 0.06 4.36 0.06 5.25 0.06 C8.04 0.57 8.93 1.26 10.62 3.5 C11.72 7.49 11.95 10.52 10.62 14.5 C9.96 14.5 9.31 14.5 8.62 14.5 C8.62 15.16 8.62 15.82 8.62 16.5 C4.9 16.84 1.34 17.01 -2.38 16.5 C-5.12 13.87 -5.12 13.87 -6.38 10.5 C-6.28 5.78 -5.1 1.06 0 0 Z M-1.25 5.81 C-2.65 7.57 -2.65 7.57 -2.38 10.5 C-1.71 10.5 -1.06 10.5 -0.38 10.5 C-0.05 11.49 0.29 12.48 0.62 13.5 C2.61 13.5 4.58 13.5 6.62 13.5 C6.62 12.84 6.62 12.18 6.62 11.5 C5.63 11.17 4.64 10.84 3.62 10.5 C3.62 9.84 3.62 9.18 3.62 8.5 C4.62 8.17 5.61 7.84 6.62 7.5 C6.62 6.51 6.62 5.52 6.62 4.5 C2.44 4.12 2.44 4.12 -1.25 5.81 Z " fill="#050608" transform="translate(371.375,741.50390625)"/>
<path d="M0 0 C1.37 0.02 1.37 0.02 2.78 0.04 C3.7 0.04 4.62 0.05 5.56 0.06 C6.27 0.07 6.98 0.09 7.71 0.1 C8.1 2.2 8.48 4.3 8.84 6.41 C9.05 7.58 9.26 8.75 9.47 9.96 C9.71 13.1 9.71 13.1 7.71 16.1 C5.37 16.43 5.37 16.43 2.65 16.35 C1.75 16.33 0.86 16.32 -0.07 16.3 C-2.29 16.1 -2.29 16.1 -3.29 15.1 C-3.38 12.77 -3.41 10.43 -3.41 8.1 C-3.41 6.82 -3.42 5.54 -3.42 4.22 C-3.24 0.14 -3.24 0.14 0 0 Z M0.71 11.1 C2.2 12.09 2.2 12.09 3.71 13.1 C4.04 12.44 4.37 11.78 4.71 11.1 C3.39 11.1 2.07 11.1 0.71 11.1 Z " fill="#050608" transform="translate(407.28515625,741.90234375)"/>
<path d="M0 0 C1.94 0.19 1.94 0.19 4 1 C5.25 3.06 5.25 3.06 6 5 C6.66 5 7.32 5 8 5 C8 5.66 8 6.32 8 7 C8.66 7 9.32 7 10 7 C10 5.02 10 3.04 10 1 C11.32 1 12.64 1 14 1 C14 5.95 14 10.9 14 16 C13.01 16.33 12.02 16.66 11 17 C10.02 15.88 9.04 14.75 8.06 13.62 C7.52 13 6.97 12.37 6.41 11.73 C5 10 5 10 4 8 C3.67 10.64 3.34 13.28 3 16 C1.68 15.67 0.36 15.34 -1 15 C-1.03 12.69 -1.05 10.38 -1.06 8.06 C-1.07 6.77 -1.09 5.49 -1.1 4.16 C-1 1 -1 1 0 0 Z " fill="#050608" transform="translate(617,742)"/>
<path d="M0 0 C0.79 -0.03 1.58 -0.05 2.4 -0.08 C5.12 0.32 6 1.07 7.62 3.25 C7.38 5.06 7.38 5.06 6.62 7.25 C6.28 9.25 5.94 11.25 5.62 13.25 C6.29 13.25 6.94 13.25 7.62 13.25 C7.62 14.24 7.62 15.23 7.62 16.25 C6.31 16.25 4.99 16.25 3.62 16.25 C3.62 15.59 3.62 14.93 3.62 14.25 C2.96 14.25 2.31 14.25 1.62 14.25 C1.62 13.59 1.62 12.93 1.62 12.25 C0.96 12.25 0.31 12.25 -0.38 12.25 C-0.7 13.57 -1.04 14.89 -1.38 16.25 C-2.69 15.92 -4.01 15.59 -5.38 15.25 C-5.4 12.94 -5.42 10.63 -5.44 8.31 C-5.45 7.02 -5.46 5.74 -5.47 4.41 C-5.33 -0.28 -4.29 0.08 0 0 Z " fill="#050608" transform="translate(292.375,741.75)"/>
<path d="M0 0 C1.44 0.03 1.44 0.03 2.91 0.06 C3.87 0.06 4.82 0.06 5.81 0.06 C8.41 0.5 8.41 0.5 10.23 1.71 C11.79 4.08 11.81 5.68 11.78 8.5 C11.79 9.36 11.8 10.23 11.8 11.12 C11.41 13.5 11.41 13.5 10.24 15.3 C7.66 16.98 5.76 16.79 2.72 16.68 C1.23 16.64 1.23 16.64 -0.29 16.6 C-1.05 16.57 -1.81 16.53 -2.59 16.5 C-2.59 15.84 -2.59 15.18 -2.59 14.5 C-3.25 14.5 -3.91 14.5 -4.59 14.5 C-6.16 11.37 -6.13 7.91 -5.59 4.5 C-4.04 1.54 -3.32 0.64 0 0 Z M-0.59 4.5 C-0.92 6.81 -1.25 9.12 -1.59 11.5 C1.25 13.86 1.25 13.86 4.59 13.12 C5.52 12.91 6.45 12.71 7.41 12.5 C7.41 9.86 7.41 7.22 7.41 4.5 C4.77 4.5 2.13 4.5 -0.59 4.5 Z " fill="#050608" transform="translate(662.59375,741.50390625)"/>
<path d="M0 0 C1.46 -0.05 2.92 -0.09 4.38 -0.12 C5.19 -0.15 6 -0.17 6.84 -0.2 C9 0 9 0 11 2 C11.23 5 11.23 5 11.19 8.56 C11.18 10.33 11.18 10.33 11.17 12.13 C11 15 11 15 10 16 C8.51 16.26 7.01 16.46 5.5 16.62 C4.69 16.72 3.87 16.82 3.03 16.91 C2.36 16.94 1.69 16.97 1 17 C0 16 0 16 -0.1 12.4 C-0.09 10.91 -0.08 9.43 -0.06 7.94 C-0.06 7.18 -0.05 6.42 -0.05 5.64 C-0.04 3.76 -0.02 1.88 0 0 Z M4 11 C4 11.66 4 12.32 4 13 C4.99 12.67 5.98 12.34 7 12 C6.01 11.67 5.02 11.34 4 11 Z " fill="#050608" transform="translate(696,742)"/>
<path d="M0 0 C1.22 2.43 1.32 4.42 1.56 7.12 C1.65 8.04 1.73 8.95 1.82 9.88 C1.88 10.58 1.94 11.28 2 12 C2.66 12 3.32 12 4 12 C4.33 8.37 4.66 4.74 5 1 C5.99 0.67 6.98 0.34 8 0 C8.66 0.33 9.32 0.66 10 1 C9.86 3.13 9.71 5.25 9.56 7.38 C9.48 8.56 9.4 9.74 9.32 10.96 C9 14 9 14 8 16 C4.7 16 1.4 16 -2 16 C-4.26 10.64 -5.36 6.8 -5 1 C-3 0 -3 0 0 0 Z " fill="#050608" transform="translate(445,742)"/>
<path d="M0 0 C1.42 -0.06 2.85 -0.12 4.31 -0.19 C5.51 -0.24 5.51 -0.24 6.74 -0.29 C9 0 9 0 10.81 1.36 C12 3 12 3 11.69 5.44 C11.46 6.28 11.23 7.13 11 8 C10.79 11.89 10.79 11.89 12 15 C10.68 15.33 9.36 15.66 8 16 C7.01 14.68 6.02 13.36 5 12 C4.67 13.32 4.34 14.64 4 16 C2.68 16 1.36 16 0 16 C0 10.72 0 5.44 0 0 Z " fill="#050608" transform="translate(501,742)"/>
<path d="M0 0 C7.71 -0.1 7.71 -0.1 10 0 C11 1 11 1 11.06 4.38 C11.04 5.57 11.02 6.77 11 8 C11 10.62 11.31 12.51 12 15 C10.68 15.33 9.36 15.66 8 16 C7.71 15.36 7.42 14.72 7.12 14.06 C6.17 11.85 6.17 11.85 4 11 C3.67 12.65 3.34 14.3 3 16 C2.01 16 1.02 16 0 16 C0 10.72 0 5.44 0 0 Z " fill="#050608" transform="translate(875,742)"/>
<path d="M0 0 C1.65 0 3.3 0 5 0 C7.26 4.93 9.4 9.8 11 15 C6.71 16.26 4.12 15.63 0 14 C0 14.66 0 15.32 0 16 C-1.65 15.67 -3.3 15.34 -5 15 C-3.33 10 -1.67 5 0 0 Z " fill="#050608" transform="translate(737,742)"/>
<path d="M0 0 C0.99 0 1.98 0 3 0 C4.26 2.52 4.1 4.31 4.06 7.12 C4.05 8.04 4.04 8.95 4.04 9.88 C4.02 10.58 4.01 11.28 4 12 C5.98 12 7.96 12 10 12 C10 8.04 10 4.08 10 0 C11.32 0.33 12.64 0.66 14 1 C14.77 11.94 14.77 11.94 11.94 15.81 C8.16 17.34 5.91 17.03 2 16 C0 14 0 14 -0.2 10.74 C-0.17 9.47 -0.15 8.19 -0.12 6.88 C-0.11 5.59 -0.09 4.31 -0.07 2.99 C-0.05 2 -0.02 1.02 0 0 Z " fill="#050608" transform="translate(824,742)"/>
<path d="M0 0 C2.31 0.06 2.31 0.06 5 1 C7.41 5.46 8.7 10.12 10 15 C8.35 15.33 6.7 15.66 5 16 C5 15.34 5 14.68 5 14 C2.03 14.66 -0.94 15.32 -4 16 C-5.21 12.38 -4.38 11.19 -2.84 7.85 C-1.68 5.3 -0.85 2.67 0 0 Z " fill="#050608" transform="translate(917,742)"/>
<path d="M0 0 C3.63 0 7.26 0 11 0 C12 5 12 5 11.25 7.19 C10 9 10 9 7 11 C6.01 11 5.02 11 4 11 C3.67 12.65 3.34 14.3 3 16 C2.01 16 1.02 16 0 16 C0 10.72 0 5.44 0 0 Z " fill="#050608" transform="translate(481,742)"/>
<path d="M0 0 C0.99 0 1.98 0 3 0 C3.33 3.96 3.66 7.92 4 12 C5.65 11.67 7.3 11.34 9 11 C9.33 7.37 9.66 3.74 10 0 C11.32 0.33 12.64 0.66 14 1 C14.08 2.75 14.14 4.5 14.19 6.25 C14.22 7.22 14.26 8.2 14.29 9.2 C13.95 12.45 13.38 13.77 11 16 C8.81 16.46 8.81 16.46 6.44 16.38 C5.65 16.36 4.87 16.35 4.06 16.34 C2 16 2 16 0 14 C-0.2 10.74 -0.2 10.74 -0.12 6.88 C-0.11 5.59 -0.09 4.31 -0.07 2.99 C-0.05 2 -0.02 1.02 0 0 Z " fill="#050608" transform="translate(266,742)"/>
<path d="M0 0 C0.99 0 1.98 0 3 0 C3 3.96 3 7.92 3 12 C4.32 12 5.64 12 7 12 C8.15 9.7 8.31 7.92 8.56 5.38 C8.65 4.56 8.73 3.74 8.82 2.9 C8.88 2.27 8.94 1.65 9 1 C10.32 0.67 11.64 0.34 13 0 C13.05 2.1 13.09 4.21 13.12 6.31 C13.15 7.48 13.17 8.66 13.2 9.86 C13 13 13 13 11 16 C8.62 16.29 8.62 16.29 5.88 16.19 C4.96 16.16 4.05 16.13 3.12 16.11 C2.42 16.07 1.72 16.04 1 16 C-0.87 12.1 -1.14 9.46 -0.62 5.19 C-0.51 4.21 -0.4 3.24 -0.29 2.23 C-0.19 1.49 -0.1 0.76 0 0 Z " fill="#050608" transform="translate(755,742)"/>
<path d="M0 0 C1.24 0.02 1.24 0.02 2.5 0.04 C3.32 0.04 4.15 0.05 5 0.06 C5.64 0.07 6.28 0.09 6.93 0.1 C6.56 2.04 6.56 2.04 5.93 4.1 C4.94 4.59 4.94 4.59 3.93 5.1 C4.59 5.43 5.25 5.76 5.93 6.1 C5.93 7.42 5.93 8.74 5.93 10.1 C4.94 10.76 3.95 11.42 2.93 12.1 C4.25 12.43 5.57 12.76 6.93 13.1 C6.93 14.09 6.93 15.08 6.93 16.1 C0.48 17.44 0.48 17.44 -1.78 16.03 C-3.68 13.18 -3.39 10.86 -3.32 7.47 C-3.3 6.3 -3.29 5.14 -3.27 3.93 C-3 0.14 -3 0.14 0 0 Z " fill="#050608" transform="translate(897.06640625,741.90234375)"/>
<path d="M0 0 C3.3 0 6.6 0 10 0 C10 0.99 10 1.98 10 3 C9.01 3.66 8.02 4.32 7 5 C7.33 6.65 7.66 8.3 8 10 C6.68 10.33 5.36 10.66 4 11 C4 11.66 4 12.32 4 13 C5.98 13 7.96 13 10 13 C10 13.99 10 14.98 10 16 C6.7 16 3.4 16 0 16 C0 10.72 0 5.44 0 0 Z " fill="#050608" transform="translate(463,742)"/>
<path d="M0 0 C2.97 0 5.94 0 9 0 C9.33 0.99 9.66 1.98 10 3 C8.02 3.99 8.02 3.99 6 5 C6.99 5.66 7.98 6.32 9 7 C8 10 8 10 5 12 C7.48 12.99 7.48 12.99 10 14 C9.67 14.66 9.34 15.32 9 16 C2.57 17.29 2.57 17.29 0 16 C0 10.72 0 5.44 0 0 Z " fill="#050608" transform="translate(992,742)"/>
<path d="M0 0 C2.97 0 5.94 0 9 0 C9.33 0.99 9.66 1.98 10 3 C9.01 3.66 8.02 4.32 7 5 C7.99 6.49 7.99 6.49 9 8 C7.68 9.32 6.36 10.64 5 12 C7.48 12.99 7.48 12.99 10 14 C9.67 14.66 9.34 15.32 9 16 C2.57 17.29 2.57 17.29 0 16 C0 10.72 0 5.44 0 0 Z " fill="#050608" transform="translate(716,742)"/>
<path d="M0 0 C2.05 0.03 4.1 0.07 6.15 0.1 C5.78 2.04 5.78 2.04 5.15 4.1 C4.16 4.59 4.16 4.59 3.15 5.1 C4 5.82 4.84 6.54 5.71 7.29 C8.15 10.1 8.15 10.1 8.03 12.85 C7.15 15.1 7.15 15.1 6.15 16.1 C4.63 16.17 3.11 16.18 1.59 16.16 C0.76 16.15 -0.06 16.14 -0.91 16.13 C-1.87 16.12 -1.87 16.12 -2.85 16.1 C-2.52 14.45 -2.19 12.8 -1.85 11.1 C-0.53 11.1 0.79 11.1 2.15 11.1 C1.33 10.75 0.5 10.4 -0.35 10.04 C-1.17 9.4 -2 8.76 -2.85 8.1 C-3.22 4.47 -3.22 4.47 -2.85 1.1 C-1.85 0.1 -1.85 0.1 0 0 Z " fill="#050608" transform="translate(575.84765625,741.90234375)"/>
<path d="M0 0 C2.64 0 5.28 0 8 0 C7.62 1.94 7.62 1.94 7 4 C6.01 4.5 6.01 4.5 5 5 C5.64 5.58 6.28 6.15 6.94 6.75 C8.99 8.99 9.81 10 10 13 C9.01 14.49 9.01 14.49 8 16 C6.05 16.29 6.05 16.29 3.88 16.19 C2.6 16.13 1.32 16.06 0 16 C0 15.01 0 14.02 0 13 C1.32 12.34 2.64 11.68 4 11 C3.15 10.48 2.31 9.97 1.44 9.44 C0.63 8.63 -0.17 7.83 -1 7 C-0.81 3.25 -0.81 3.25 0 0 Z " fill="#050608" transform="translate(1011,742)"/>
<path d="M0 0 C3.3 0 6.6 0 10 0 C10 0.99 10 1.98 10 3 C9.01 3.66 8.02 4.32 7 5 C7.33 6.65 7.66 8.3 8 10 C6.68 10.33 5.36 10.66 4 11 C3.67 12.65 3.34 14.3 3 16 C2.01 16 1.02 16 0 16 C0 10.72 0 5.44 0 0 Z " fill="#050608" transform="translate(806,742)"/>
<path d="M0 0 C0.99 0.33 1.98 0.66 3 1 C3.03 1.77 3.05 2.54 3.08 3.34 C3.13 4.34 3.19 5.34 3.25 6.38 C3.3 7.37 3.34 8.37 3.39 9.4 C3.72 12.15 3.72 12.15 6.05 13.35 C6.69 13.57 7.34 13.78 8 14 C7.67 14.66 7.34 15.32 7 16 C4.12 16.75 4.12 16.75 1 17 C0.01 16.34 -0.98 15.68 -2 15 C-2.29 11.74 -2.29 11.74 -2.19 7.88 C-2.16 6.59 -2.13 5.31 -2.11 3.99 C-2.07 3 -2.04 2.02 -2 1 C-1.34 0.67 -0.68 0.34 0 0 Z " fill="#050608" transform="translate(847,742)"/>
<path d="M0 0 C3.63 0 7.26 0 11 0 C10.67 1.32 10.34 2.64 10 4 C9.01 4 8.02 4 7 4 C7 7.63 7 11.26 7 15 C5.68 15.33 4.36 15.66 3 16 C3 12.04 3 8.08 3 4 C2.01 3.67 1.02 3.34 0 3 C0 2.01 0 1.02 0 0 Z " fill="#050608" transform="translate(775,742)"/>
<path d="M0 0 C3.63 0 7.26 0 11 0 C11 0.99 11 1.98 11 3 C9.68 3.33 8.36 3.66 7 4 C7 7.63 7 11.26 7 15 C5.68 15.33 4.36 15.66 3 16 C3 12.04 3 8.08 3 4 C2.01 3.67 1.02 3.34 0 3 C0 2.01 0 1.02 0 0 Z " fill="#050608" transform="translate(555,742)"/>
<path d="M0 0 C1.37 0.02 1.37 0.02 2.78 0.04 C3.7 0.04 4.62 0.05 5.56 0.06 C6.27 0.07 6.98 0.09 7.71 0.1 C8.04 1.09 8.37 2.08 8.71 3.1 C7.06 3.43 5.41 3.76 3.71 4.1 C3.71 8.06 3.71 12.02 3.71 16.1 C2.39 15.77 1.07 15.44 -0.29 15.1 C-0.36 13.96 -0.36 13.96 -0.43 12.8 C-0.51 11.8 -0.58 10.81 -0.66 9.79 C-0.73 8.8 -0.8 7.81 -0.87 6.8 C-1.12 3.88 -1.12 3.88 -3.29 1.1 C-2.29 0.1 -2.29 0.1 0 0 Z " fill="#050608" transform="translate(250.28515625,741.90234375)"/>
<path d="M0 0 C3.3 0 6.6 0 10 0 C10 0.99 10 1.98 10 3 C9.01 3.33 8.02 3.66 7 4 C7 7.96 7 11.92 7 16 C5.68 15.67 4.36 15.34 3 15 C2.67 11.37 2.34 7.74 2 4 C1.01 3.67 0.02 3.34 -1 3 C-0.67 2.01 -0.34 1.02 0 0 Z " fill="#050608" transform="translate(961,742)"/>
<path d="M0 0 C3.3 0 6.6 0 10 0 C10 0.99 10 1.98 10 3 C8.68 3.33 7.36 3.66 6 4 C6 7.63 6 11.26 6 15 C4.68 15 3.36 15 2 15 C1.93 13.83 1.93 13.83 1.85 12.63 C1.78 11.62 1.7 10.61 1.62 9.56 C1.56 8.55 1.49 7.54 1.41 6.5 C1.28 5.68 1.14 4.85 1 4 C0.34 3.67 -0.32 3.34 -1 3 C-0.67 2.01 -0.34 1.02 0 0 Z " fill="#050608" transform="translate(640,742)"/>
<path d="M0 0 C0.99 0 1.98 0 3 0 C3.33 3.96 3.66 7.92 4 12 C5.32 12.33 6.64 12.66 8 13 C8 13.99 8 14.98 8 16 C1.85 16.1 1.85 16.1 0 16 C-1 15 -1 15 -1.13 11.88 C-1.13 10.6 -1.13 9.32 -1.12 8 C-1.13 6.72 -1.13 5.44 -1.13 4.12 C-1 1 -1 1 0 0 Z " fill="#050608" transform="translate(425,742)"/>
<path d="M0 0 C1.32 0.33 2.64 0.66 4 1 C4 4.96 4 8.92 4 13 C5.65 13.33 7.3 13.66 9 14 C8.67 14.66 8.34 15.32 8 16 C4.5 16.69 4.5 16.69 1 17 C0 16 0 16 -0.1 12.4 C-0.09 10.91 -0.08 9.43 -0.06 7.94 C-0.06 7.18 -0.05 6.42 -0.05 5.64 C-0.04 3.76 -0.02 1.88 0 0 Z " fill="#050608" transform="translate(934,742)"/>
<path d="M0 0 C0.99 0.33 1.98 0.66 3 1 C3 5.62 3 10.24 3 15 C2.01 15.33 1.02 15.66 0 16 C-0.66 15.67 -1.32 15.34 -2 15 C-2 10.38 -2 5.76 -2 1 C-1.34 0.67 -0.68 0.34 0 0 Z " fill="#050608" transform="translate(522,742)"/>
<path d="M0 0 C0.99 0 1.98 0 3 0 C4.53 3.05 3.84 5.76 3.56 9.12 C3.46 10.41 3.36 11.69 3.25 13.01 C3.17 14 3.09 14.98 3 16 C1.68 15.67 0.36 15.34 -1 15 C-1.03 12.69 -1.05 10.38 -1.06 8.06 C-1.07 6.77 -1.09 5.49 -1.1 4.16 C-1 1 -1 1 0 0 Z " fill="#050608" transform="translate(794,742)"/>
<path d="M0 0 C1.32 0.33 2.64 0.66 4 1 C4 5.62 4 10.24 4 15 C2.68 15.33 1.36 15.66 0 16 C0 10.72 0 5.44 0 0 Z " fill="#050608" transform="translate(980,742)"/>
<path d="M0 0 C1.32 0.33 2.64 0.66 4 1 C4 5.62 4 10.24 4 15 C2.68 15.33 1.36 15.66 0 16 C0 10.72 0 5.44 0 0 Z " fill="#050608" transform="translate(604,742)"/>
<path d="M0 0 C1.32 0.33 2.64 0.66 4 1 C4 5.62 4 10.24 4 15 C2.68 15.33 1.36 15.66 0 16 C0 10.72 0 5.44 0 0 Z " fill="#050608" transform="translate(330,742)"/>
<path d="M0 0 C0.99 0.33 1.98 0.66 3 1 C3 5.95 3 10.9 3 16 C1.68 15.67 0.36 15.34 -1 15 C-1.03 12.69 -1.05 10.38 -1.06 8.06 C-1.07 6.77 -1.09 5.49 -1.1 4.16 C-1 1 -1 1 0 0 Z " fill="#050608" transform="translate(950,742)"/>
<path d="M0 0 C0.99 0 1.98 0 3 0 C3 0.99 3 1.98 3 3 C1.68 2.67 0.36 2.34 -1 2 C-0.67 1.34 -0.34 0.68 0 0 Z " fill="#050608" transform="translate(1029,755)"/>
</svg>
